<?xml version="1.0" standalone="no"?>
<!DOCTYPE svg PUBLIC "-//W3C//DTD SVG 20010904//EN"
 "http://www.w3.org/TR/2001/REC-SVG-20010904/DTD/svg10.dtd">
<svg version="1.0" xmlns="http://www.w3.org/2000/svg"
 width="400.000000pt" height="400.000000pt" viewBox="0 0 400.000000 400.000000"
 preserveAspectRatio="xMidYMid meet">

<g transform="translate(0.000000,400.000000) scale(0.100000,-0.100000)"
fill="#000000" stroke="none">
<path d="M0 2000 l0 -2000 2000 0 2000 0 0 2000 0 2000 -2000 0 -2000 0 0
-2000z m1621 1629 c69 -49 77 -135 18 -195 l-32 -33 16 -53 c9 -29 27 -91 41
-138 23 -84 24 -85 59 -91 19 -3 48 -14 64 -25 25 -17 43 -18 163 -15 240 6
440 -51 630 -178 48 -32 59 -36 83 -27 19 7 41 6 73 -2 l45 -12 82 86 c47 50
81 94 79 103 -2 9 -6 39 -9 67 -5 48 -3 54 28 88 73 79 190 52 218 -49 13 -48
-2 -98 -40 -129 -40 -34 -72 -41 -121 -26 l-41 12 -89 -89 -89 -89 17 -39 c13
-31 14 -46 5 -74 -9 -31 -7 -38 18 -70 93 -117 173 -315 196 -483 4 -34 11
-49 25 -53 27 -8 80 -72 80 -95 0 -19 7 -20 113 -20 61 0 121 -3 132 -5 15 -4
24 2 35 27 39 85 145 102 207 34 32 -34 37 -52 33 -106 -4 -53 -67 -110 -123
-110 -54 0 -127 57 -127 100 0 14 -13 18 -67 23 -38 4 -98 7 -134 7 -65 0 -67
-1 -79 -30 -13 -32 -58 -70 -82 -70 -10 0 -20 -26 -32 -77 -34 -144 -93 -272
-180 -390 -36 -49 -42 -64 -38 -95 2 -20 -1 -53 -8 -72 -12 -36 -11 -37 48
-99 33 -34 69 -73 79 -86 16 -20 23 -22 41 -12 76 41 182 -25 182 -114 0 -83
-85 -149 -161 -126 -75 23 -115 104 -85 175 l16 38 -77 84 c-57 62 -82 82 -93
77 -8 -4 -44 -8 -80 -8 -59 0 -72 -4 -144 -47 -96 -57 -212 -100 -332 -124
-76 -14 -92 -21 -113 -47 -13 -16 -39 -36 -58 -43 l-33 -14 0 -120 c0 -115 1
-120 21 -120 31 0 85 -59 93 -103 14 -75 -48 -147 -127 -147 -137 0 -177 185
-53 244 l36 17 0 114 0 115 -34 14 c-19 8 -45 31 -58 50 -14 23 -31 36 -44 36
-44 0 -201 52 -289 95 -49 24 -126 71 -170 104 -73 56 -84 61 -130 61 -28 0
-60 6 -71 14 -18 13 -26 8 -106 -60 l-87 -73 6 -53 c6 -68 -23 -116 -83 -137
-48 -17 -82 -10 -123 24 -45 39 -57 86 -36 142 29 76 112 106 180 64 l31 -18
87 71 c69 57 85 75 81 91 -14 50 -15 77 -5 103 11 25 8 35 -24 87 -39 65 -84
175 -111 275 -26 91 -26 394 -1 494 17 65 17 70 0 88 -10 11 -18 38 -19 64 -1
25 -4 48 -7 51 -4 3 -61 30 -127 59 l-122 54 -19 -25 c-69 -87 -219 -27 -219
87 0 143 195 178 244 45 9 -23 15 -50 13 -60 -1 -14 25 -30 123 -73 75 -34
129 -53 136 -47 43 32 62 42 87 45 19 3 36 16 54 44 96 145 250 282 401 359
56 28 75 44 86 69 8 18 25 44 39 57 l26 24 -29 97 c-16 54 -34 115 -40 137 -9
34 -14 39 -49 45 -45 7 -85 36 -106 76 -58 113 82 233 186 159z"/>
<path d="M1864 3043 c-18 -3 -22 -13 -26 -59 -3 -37 -11 -61 -26 -77 l-22 -23
103 -194 104 -194 44 2 c34 3 53 -3 80 -21 l36 -24 199 118 c109 66 202 119
207 119 4 0 7 24 7 53 0 32 6 61 16 76 21 29 15 35 -90 95 -159 91 -337 137
-515 135 -53 -1 -106 -4 -117 -6z"/>
<path d="M1502 2927 c-151 -87 -268 -192 -349 -314 l-35 -52 30 -26 c17 -14
37 -42 44 -60 8 -24 18 -35 33 -35 11 -1 171 -11 355 -24 184 -13 336 -20 338
-15 2 4 15 25 28 45 16 23 22 40 16 48 -5 6 -44 79 -87 161 -115 222 -110 215
-149 208 -48 -8 -98 20 -125 67 -12 22 -23 40 -24 39 -1 0 -35 -20 -75 -42z"/>
<path d="M2379 2548 l-207 -122 3 -45 3 -46 134 -53 c73 -29 233 -91 355 -139
l222 -86 32 27 c17 15 45 30 60 33 28 5 29 7 23 47 -25 162 -105 358 -194 476
-18 24 -18 24 -40 5 -32 -29 -109 -27 -149 3 -16 12 -31 22 -33 22 -2 0 -96
-55 -209 -122z"/>
<path d="M1183 2376 l-16 -34 107 -131 c93 -113 110 -130 126 -121 29 15 72
12 114 -9 l38 -20 189 126 c104 69 189 131 189 137 -1 35 -17 38 -311 56 -162
10 -322 21 -357 24 l-63 5 -16 -33z"/>
<path d="M1000 2280 c-25 -88 -32 -170 -27 -294 8 -180 49 -328 129 -463 30
-49 33 -51 52 -37 11 8 37 14 57 14 l38 0 31 83 c18 45 47 122 66 171 36 93
41 116 24 116 -18 0 -50 64 -50 98 0 18 7 46 15 63 9 16 12 35 8 43 -4 7 -51
64 -103 127 l-94 115 -68 -1 -68 0 -10 -35z"/>
<path d="M2141 2286 c-21 -24 -37 11 142 -306 l65 -115 40 3 c44 3 98 -19 119
-48 12 -17 26 -12 195 59 l182 77 0 34 0 34 -240 93 c-131 52 -294 115 -361
142 l-123 48 -19 -21z"/>
<path d="M1755 2159 l-180 -120 2 -37 c2 -20 6 -39 10 -43 5 -3 157 -43 338
-88 182 -45 335 -84 342 -86 7 -2 22 10 34 27 20 28 21 32 7 57 -8 14 -59 106
-114 204 -98 176 -99 177 -129 172 -20 -3 -45 2 -70 15 -22 11 -44 20 -50 19
-5 0 -91 -54 -190 -120z"/>
<path d="M2715 1850 c-158 -68 -180 -80 -177 -98 2 -12 -6 -42 -17 -68 l-21
-47 60 -111 59 -112 48 0 c29 0 59 -7 75 -18 15 -10 32 -15 39 -11 18 12 109
155 136 215 32 72 49 121 67 198 l14 63 -26 10 c-15 6 -38 21 -52 34 l-25 23
-180 -78z"/>
<path d="M1550 1890 l-22 -30 195 -356 194 -356 52 -2 52 -1 150 244 c83 134
147 249 144 255 -3 6 -12 22 -20 36 -8 14 -15 35 -15 46 0 14 -8 24 -22 28
-79 22 -664 166 -674 166 -7 0 -22 -14 -34 -30z"/>
<path d="M1449 1843 l-37 -4 -65 -172 -65 -172 28 -28 c48 -47 52 -127 8 -174
l-20 -21 74 -55 c40 -30 102 -71 138 -90 71 -38 220 -91 288 -102 40 -6 42 -6
42 18 0 14 12 39 26 56 l25 30 -174 318 c-96 175 -184 337 -196 361 -12 23
-25 41 -29 40 -4 -1 -23 -3 -43 -5z"/>
<path d="M2199 1372 c-82 -134 -149 -245 -149 -248 0 -3 9 -17 20 -32 11 -15
21 -38 23 -52 4 -22 8 -25 38 -22 111 11 271 67 380 134 l65 40 -19 39 c-23
46 -17 93 15 134 l21 27 -58 112 -59 111 -64 0 -64 0 -149 -243z"/>
</g>
</svg>
